<svg width="26" height="25" viewBox="0 0 26 25" fill="none" xmlns="http://www.w3.org/2000/svg">
<path d="M13.0447 0.408569C6.35522 0.408569 0.935303 5.82849 0.935303 12.5179C0.935303 19.2074 6.35522 24.6273 13.0447 24.6273C19.7341 24.6273 25.1541 19.2074 25.1541 12.5179C25.1541 5.82849 19.7341 0.408569 13.0447 0.408569ZM13.0447 5.09607C15.4177 5.09607 17.3416 7.0199 17.3416 9.39294C17.3416 11.766 15.4177 13.6898 13.0447 13.6898C10.6716 13.6898 8.7478 11.766 8.7478 9.39294C8.7478 7.0199 10.6716 5.09607 13.0447 5.09607ZM13.0447 21.8929C10.1785 21.8929 7.61011 20.5941 5.89136 18.5629C6.80933 16.8343 8.6062 15.6429 10.7009 15.6429C10.8181 15.6429 10.9353 15.6625 11.0476 15.6967C11.6824 15.9017 12.3464 16.0336 13.0447 16.0336C13.7429 16.0336 14.4119 15.9017 15.0417 15.6967C15.1541 15.6625 15.2712 15.6429 15.3884 15.6429C17.4832 15.6429 19.28 16.8343 20.198 18.5629C18.4792 20.5941 15.9109 21.8929 13.0447 21.8929Z" fill="black"/>
</svg>
